<svg
          class="preloader__logo"
          width="239"
          height="34"
          viewBox="0 0 239 34"
          fill="none"
          xmlns="http://www.w3.org/2000/svg"
        >
          <path
            d="M5.39705 4.76172L10.2384 20.5161H11.4289L16.2705 4.76172H21.6673L15.3179 25.3972H6.34939L0 4.76172H5.39705Z"
            fill="#FCFCFC"
          />
          <path
            d="M23.4448 16.27V4.76172H28.6037V15.0795C28.6037 18.7701 30.3103 20.5161 32.8103 20.5161H35.0325C37.5327 20.5161 38.1279 18.7701 38.1279 15.9525V4.76172H43.2868V23.8099C43.2868 29.4847 39.8343 32.9371 34.1595 32.9371H32.5326C26.3419 32.9371 23.4053 30.0006 23.4053 26.1909H28.5642C28.5642 27.4608 29.0405 27.7783 32.5326 27.7783H34.1595C37.3341 27.7783 38.1279 26.9846 38.1279 23.8496C36.977 25.0401 35.3105 25.5957 32.8897 25.5957C26.4609 25.5957 23.4448 22.6194 23.4448 16.27Z"
            fill="#FCFCFC"
          />
          <path
            d="M44.6401 15.0004C44.6401 9.24631 48.5688 4.56365 54.3626 4.56365C56.9817 4.56365 59.0453 5.51606 60.5533 7.10341V0H65.7122V25.3975H60.5533V23.0562C59.0453 24.6833 56.9817 25.6357 54.3626 25.6357C48.5688 25.6357 44.6401 20.9133 44.6401 15.0004ZM53.9658 20.5165H56.3468C59.0453 20.5165 60.5533 18.8498 60.5533 16.1909V13.81C60.5533 11.1511 59.0453 9.48443 56.3468 9.48443H53.9658C51.2673 9.48443 49.4022 11.548 49.4022 15.0005C49.4022 18.4529 51.2673 20.5165 53.9658 20.5165Z"
            fill="#FCFCFC"
          />
          <path
            d="M72.5842 4.76174V6.30943C73.7351 5.1189 75.4018 4.56335 77.8225 4.56335C84.2512 4.56335 87.2672 7.53962 87.2672 13.889V25.3973H82.1083V15.0795C82.1083 11.3889 81.1956 9.64286 78.6956 9.64286H75.6796C73.1794 9.64286 72.5842 11.3889 72.5842 14.2065V25.3973H67.4253V4.76174H72.5842Z"
            fill="#FCFCFC"
          />
          <path
            d="M89.0481 15.0002C89.0481 8.2936 93.0562 4.56335 99.5643 4.56335C106.35 4.56335 110.08 8.53172 110.08 15.0002C110.08 21.8257 106.072 25.6354 99.5643 25.6354C92.7783 25.6354 89.0481 21.6273 89.0481 15.0002ZM98.3737 20.5162H100.755C103.453 20.5162 105.318 18.4526 105.318 15.0002C105.318 11.5477 103.453 9.48413 100.755 9.48413H98.3737C95.6753 9.48413 93.8102 11.5477 93.8102 15.0002C93.8102 18.4526 95.6753 20.5162 98.3737 20.5162Z"
            fill="#FCFCFC"
          />
          <path
            d="M141.784 15.0001C141.784 8.4523 145.713 4.56335 151.506 4.56335C154.126 4.56335 156.189 5.5157 157.697 7.10311V4.76175H160.673V25.0004C160.673 30.0799 157.697 33.0165 152.618 33.0165H150.197C145.236 33.0165 142.459 31.072 142.459 26.3893H145.435C145.435 29.3656 146.427 30.0402 150.197 30.0402H152.618C156.229 30.0402 157.697 28.6116 157.697 25.0004V23.0559C156.189 24.6829 154.126 25.6353 151.506 25.6353C145.713 25.6353 141.784 21.7067 141.784 15.0001ZM150.157 22.4606H152.737C155.951 22.4606 157.697 20.1987 157.697 16.6272V13.3731C157.697 9.80157 155.951 7.53959 152.737 7.53959H150.157C146.943 7.53959 144.76 10.3174 144.76 15.0001C144.76 19.6828 146.943 22.4606 150.157 22.4606Z"
            fill="#44D7B3"
          />
          <path
            d="M162.399 15.0398C162.399 8.17453 165.97 4.56335 171.685 4.56335C177.399 4.56335 180.971 8.17453 180.971 15.0398V15.8335H165.455C165.613 20.8336 167.32 22.54 170.613 22.54H173.113C175.177 22.54 176.725 21.2305 177.677 18.651H180.653C179.542 23.0559 176.288 25.5957 171.685 25.5957C165.732 25.5956 162.399 21.6273 162.399 15.0398ZM177.836 13.0556C177.439 8.96824 175.772 7.53959 172.756 7.53959H170.613C167.598 7.53959 165.931 8.96824 165.534 13.0556H177.836Z"
            fill="#44D7B3"
          />
          <path
            d="M185.68 4.76175V6.54749C186.91 5.19829 188.735 4.56335 191.315 4.56335C197.585 4.56335 199.966 7.77768 199.966 13.889V25.3973H196.99V12.9763C196.99 9.28564 195.68 7.53959 193.18 7.53959H189.569C187.069 7.53959 185.68 9.28564 185.68 12.1032V25.3973H182.704V4.76175H185.68Z"
            fill="#44D7B3"
          />
          <path
            d="M201.692 15.0398C201.692 8.17453 205.263 4.56335 210.978 4.56335C215.343 4.56335 218.637 6.70619 219.827 11.1111H216.851C215.938 8.76977 214.549 7.53959 212.486 7.53959H209.827C206.375 7.53959 204.668 9.4444 204.668 15.0398C204.668 20.6352 206.375 22.54 209.827 22.54H212.407C214.47 22.54 216.018 21.2305 216.97 18.651H219.946C218.835 23.0559 215.581 25.5956 210.978 25.5956C205.025 25.5956 201.692 21.6273 201.692 15.0398Z"
            fill="#44D7B3"
          />
          <path
            d="M221.687 16.2699V4.76172H224.663V17.1827C224.663 20.8733 226.369 22.6193 228.869 22.6193H232.084C234.584 22.6193 235.972 20.8733 235.972 18.0557V4.76172H238.949V25.0004C238.949 30.0799 235.972 33.0165 230.893 33.0165H230.06C225.099 33.0165 222.321 31.072 222.321 26.3893H225.298C225.298 29.3655 226.29 30.0402 230.06 30.0402H230.893C234.504 30.0402 235.972 28.6116 235.972 25.0004V23.6115C234.742 24.9607 232.917 25.5956 230.338 25.5956C224.068 25.5956 221.687 22.3812 221.687 16.2699Z"
            fill="#44D7B3"
          />
          <path
            d="M124.648 20.5282C127.789 21.7267 131.6 21.082 133.77 19.0282L133.975 18.8251C134.196 18.5956 134.438 18.2937 134.625 18.0282C134.718 17.8955 134.798 17.773 134.853 17.6737C134.88 17.624 134.901 17.5804 134.915 17.5458C134.93 17.5095 134.934 17.4884 134.934 17.4803C134.933 17.4718 134.929 17.4501 134.913 17.412C134.898 17.3754 134.874 17.3298 134.845 17.2772C134.785 17.1722 134.701 17.0423 134.603 16.9032C134.454 16.694 134.274 16.4656 134.1 16.2704L133.929 16.0887C132.512 14.6528 130.304 13.8186 127.938 13.8348L127.563 13.8436C127.44 13.848 127.327 13.8536 127.257 13.8583H127.258C125.044 14.0259 123.079 14.9296 121.822 16.3368L121.581 16.6249C121.531 16.6883 121.465 16.7759 121.401 16.8661L121.229 17.1219L121.138 17.2655C121.116 17.3026 121.1 17.331 121.09 17.3553C121.071 17.3992 121.066 17.4294 121.066 17.4803C121.066 17.5306 121.071 17.5613 121.088 17.6024C121.097 17.6251 121.111 17.6518 121.131 17.6854L121.212 17.8134V17.8143C121.956 18.9696 123.02 19.8451 124.374 20.4178L124.648 20.5282ZM128.292 20.5614C126.394 20.7034 124.678 19.5274 124.417 17.9071L124.396 17.7489C124.337 17.1668 124.511 16.491 124.846 15.955L124.999 15.7343C125.533 15.0434 126.371 14.5941 127.395 14.4413L127.602 14.4149C127.702 14.4038 127.924 14.4059 128.144 14.4149C128.254 14.4194 128.367 14.4258 128.466 14.4335L128.709 14.4598C129.571 14.6021 130.368 15.0191 130.864 15.5858L130.96 15.702C131.356 16.2115 131.593 16.8783 131.599 17.4911L131.587 17.7489C131.445 19.1594 130.211 20.2803 128.616 20.5243L128.293 20.5614H128.292ZM131.416 19.8251C131.402 19.8148 131.394 19.8005 131.391 19.7889C131.385 19.7701 131.39 19.7544 131.391 19.7518C131.393 19.743 131.397 19.7358 131.397 19.7343C131.4 19.7288 131.405 19.7232 131.408 19.7186C131.415 19.7085 131.425 19.6943 131.438 19.6786L131.538 19.5546C131.807 19.2353 132.04 18.781 132.166 18.3427L132.214 18.1561C132.251 17.9854 132.265 17.8244 132.265 17.4803C132.265 17.2224 132.257 17.0677 132.237 16.9344L132.214 16.8055C132.12 16.3746 131.908 15.9065 131.65 15.5516L131.538 15.4071V15.4061C131.498 15.3581 131.462 15.315 131.438 15.2831C131.425 15.2674 131.415 15.2531 131.408 15.243C131.405 15.2384 131.4 15.2328 131.397 15.2274C131.397 15.2258 131.393 15.2187 131.391 15.2098C131.39 15.2073 131.385 15.1915 131.391 15.1727C131.394 15.1612 131.402 15.1468 131.416 15.1366C131.43 15.1267 131.445 15.1249 131.455 15.1249C131.465 15.1249 131.474 15.1273 131.476 15.1278C131.478 15.1287 131.481 15.13 131.483 15.1307C131.487 15.1322 131.492 15.1337 131.496 15.1356C131.505 15.1397 131.518 15.1457 131.532 15.1522L131.635 15.201L131.636 15.202C132.212 15.4933 132.878 15.973 133.367 16.4462L133.565 16.6483C133.698 16.7914 133.907 17.0491 134.038 17.2274L134.138 17.3719L134.185 17.452L134.206 17.4882L134.182 17.5233L134.033 17.7362C133.63 18.3123 132.952 18.9456 132.273 19.3905L131.983 19.5692C131.88 19.6292 131.761 19.6947 131.665 19.745C131.617 19.7701 131.573 19.791 131.541 19.8065C131.525 19.8142 131.51 19.8213 131.499 19.826C131.494 19.8283 131.488 19.8302 131.482 19.8319L131.455 19.8368C131.445 19.8368 131.43 19.835 131.416 19.8251ZM124.501 19.8319C124.496 19.8302 124.49 19.8283 124.484 19.826C124.473 19.8213 124.459 19.8142 124.442 19.8065C124.41 19.7911 124.367 19.77 124.319 19.745L124 19.5692C123.327 19.183 122.627 18.584 122.144 17.9901L121.95 17.7372C121.91 17.6819 121.874 17.629 121.847 17.5887C121.833 17.5689 121.823 17.5514 121.814 17.538C121.81 17.5313 121.807 17.5242 121.804 17.5184C121.802 17.5158 121.8 17.5125 121.799 17.5087L121.793 17.4803L121.797 17.4559C121.799 17.4509 121.801 17.446 121.803 17.4423C121.806 17.4348 121.811 17.4268 121.815 17.4188C121.825 17.4025 121.839 17.3815 121.854 17.3583C121.886 17.3116 121.93 17.2508 121.979 17.1844C122.029 17.118 122.085 17.0448 122.141 16.9745L122.302 16.7782C122.5 16.5506 122.887 16.1929 123.222 15.9227L123.53 15.6903V15.6893C123.76 15.5337 124.071 15.349 124.417 15.1639V15.163C124.44 15.1504 124.467 15.1368 124.487 15.1317C124.493 15.1303 124.502 15.1293 124.513 15.1298C124.523 15.1303 124.544 15.1335 124.561 15.1503C124.578 15.1681 124.581 15.1897 124.581 15.203C124.581 15.2154 124.577 15.2254 124.575 15.2313C124.567 15.2523 124.55 15.2775 124.531 15.3016L124.445 15.4071C124.181 15.7206 123.959 16.1442 123.83 16.5721L123.78 16.7557C123.73 16.9702 123.72 17.0767 123.72 17.4803C123.72 17.7838 123.726 17.9199 123.75 18.0594L123.78 18.2059C123.881 18.6332 124.084 19.0712 124.335 19.4139L124.445 19.5546H124.446C124.486 19.6026 124.521 19.6466 124.546 19.6786C124.558 19.6944 124.569 19.7085 124.576 19.7186C124.579 19.7232 124.583 19.7289 124.586 19.7343C124.587 19.7359 124.591 19.7429 124.594 19.7518C124.594 19.7544 124.598 19.7701 124.593 19.7889C124.589 19.8005 124.582 19.8148 124.567 19.8251L124.528 19.8368C124.515 19.8367 124.504 19.8328 124.501 19.8319Z"
            fill="white"
            stroke="white"
            stroke-width="0.133333"
          />
          <path d="M140.109 25.25H115.891L128 4.97461L140.109 25.25Z" stroke="white" />
          <circle cx="128.025" cy="17.4403" r="1.79225" fill="white" stroke="white" />
        </svg>